<?xml version="1.0" encoding="utf-8"?>
<!-- Generator: Adobe Illustrator 27.1.1, SVG Export Plug-In . SVG Version: 6.00 Build 0)  -->
<svg version="1.1" id="Layer_1" xmlns="http://www.w3.org/2000/svg" xmlns:xlink="http://www.w3.org/1999/xlink" x="0px" y="0px"
	 viewBox="0 0 218 48" enable-background="new 0 0 218 48" xml:space="preserve">
<g>
	<path fill="#211E1F" d="M59.7,26.3v-0.2c0-4.7,3-8.1,7.3-8.1c2.2,0,3.7,0.6,5.1,1.8l-1.6,2.1c-0.9-0.8-1.9-1.4-3.5-1.4
		c-2.6,0-4.5,2.4-4.5,5.7v0.1c0,3.6,2,5.7,4.7,5.7c1.1,0,2.1-0.3,2.8-0.8v-3.5h-3.4v-2.3h5.9v7.2c-1.3,1.1-3.2,1.9-5.5,1.9
		C62.7,34.4,59.7,31.2,59.7,26.3"/>
	<path fill="#211E1F" d="M75.3,30.7v-0.1c0-2.6,1.7-3.9,4.3-3.9c1.1,0,2,0.2,2.8,0.5v-0.5c0-1.6-1-2.5-2.6-2.5
		c-1.2,0-2.1,0.4-2.9,0.7l-0.7-2.1c1.2-0.6,2.4-1,4-1c1.6,0,2.8,0.4,3.6,1.2c0.8,0.8,1.2,2,1.2,3.5v7.5h-2.5v-1.5
		c-0.7,1-1.8,1.7-3.4,1.7C77,34.4,75.3,33,75.3,30.7 M82.4,30.1v-1.2c-0.6-0.3-1.4-0.4-2.2-0.4c-1.5,0-2.4,0.8-2.4,2v0.1
		c0,1.2,0.9,1.9,2,1.9C81.3,32.4,82.4,31.4,82.4,30.1z"/>
	<path fill="#211E1F" d="M88.6,31.2v-7h-1.3V22h1.3v-3.3h2.6V22h2.7v2.2h-2.7v6.4c0,0.9,0.5,1.3,1.3,1.3c0.5,0,1-0.1,1.4-0.3v2.1
		c-0.6,0.3-1.3,0.5-2.1,0.5C90,34.3,88.6,33.6,88.6,31.2"/>
	<path fill="#211E1F" d="M95.9,28.2V28c0-3.6,2.2-6.2,5.2-6.2c3.3,0,5,2.7,5,6.4c0,0.2,0,0.5,0,0.9h-7.6c0.2,2,1.5,3.1,3.1,3.1
		c1.1,0,2-0.5,2.8-1.3l1.3,1.6c-1.1,1.2-2.4,1.9-4.2,1.9C98.4,34.4,95.9,32,95.9,28.2 M103.6,27.3c-0.1-1.9-1-3.3-2.5-3.3
		c-1.4,0-2.4,1.3-2.6,3.3H103.6z"/>
	<polygon fill="#211E1F" points="107.7,22 110.3,22 112.4,30.2 114.6,22 116.8,22 119.1,30.2 121.1,22 123.7,22 120.3,34.2 
		118,34.2 115.7,26.1 113.4,34.2 111.1,34.2 	"/>
	<path fill="#211E1F" d="M125.2,30.7v-0.1c0-2.6,1.7-3.9,4.3-3.9c1.1,0,2,0.2,2.8,0.5v-0.5c0-1.6-1-2.5-2.6-2.5
		c-1.2,0-2.1,0.4-2.9,0.7l-0.7-2.1c1.2-0.6,2.4-1,4-1c1.6,0,2.8,0.4,3.6,1.2c0.8,0.8,1.2,2,1.2,3.5v7.5h-2.5v-1.5
		c-0.7,1-1.8,1.7-3.4,1.7C126.9,34.4,125.2,33,125.2,30.7 M132.3,30.1v-1.2c-0.6-0.3-1.4-0.4-2.2-0.4c-1.5,0-2.4,0.8-2.4,2v0.1
		c0,1.2,0.8,1.9,2,1.9C131.2,32.4,132.3,31.4,132.3,30.1z"/>
	<path fill="#211E1F" d="M144.9,22h2.7l-4.1,12.3c-0.8,2.4-1.8,3.3-3.6,3.3c-0.9,0-1.7-0.2-2.4-0.6l0.8-2c0.4,0.2,0.9,0.4,1.4,0.4
		c0.7,0,1.1-0.3,1.5-1.3L136.8,22h2.7l2.8,8.8L144.9,22z"/>
	<path fill="#211E1F" d="M156.3,26.3v-0.2c0-4.7,3-8.1,7.3-8.1c2.2,0,3.7,0.6,5.1,1.8l-1.6,2.1c-0.9-0.8-1.9-1.4-3.5-1.4
		c-2.6,0-4.5,2.4-4.5,5.7v0.1c0,3.6,2,5.7,4.7,5.7c1.1,0,2.1-0.3,2.8-0.8v-3.5h-3.4v-2.3h5.9v7.2c-1.3,1.1-3.2,1.9-5.5,1.9
		C159.2,34.4,156.3,31.2,156.3,26.3"/>
	<path fill="#211E1F" d="M172.4,22h2.6v2.4c0.6-1.6,1.8-2.6,3.6-2.6v2.8h-0.1c-2.1,0-3.5,1.4-3.5,4.1v5.3h-2.6V22z"/>
	<path fill="#211E1F" d="M180.2,28.2V28c0-3.6,2.4-6.2,5.6-6.2c3.2,0,5.5,2.6,5.5,6.2v0.2c0,3.6-2.4,6.2-5.6,6.2
		C182.5,34.4,180.2,31.8,180.2,28.2 M188.8,28.2V28c0-2.3-1.3-4-3-4c-1.8,0-3,1.7-3,3.9v0.1c0,2.3,1.3,4,3,4
		C187.6,32.1,188.8,30.4,188.8,28.2z"/>
	<path fill="#211E1F" d="M194.1,30.1V22h2.6v7.4c0,1.7,0.8,2.6,2.1,2.6c1.3,0,2.3-1,2.3-2.7V22h2.6v12.1h-2.6v-1.8
		c-0.7,1.1-1.6,2-3.3,2C195.5,34.4,194.1,32.7,194.1,30.1"/>
	<path fill="#211E1F" d="M207.2,22h2.6V24c0.8-1.2,1.8-2.2,3.5-2.2c2.4,0,4.7,2,4.7,6.1v0.3c0,4.1-2.3,6.1-4.7,6.1
		c-1.8,0-2.8-1-3.5-2.1v5.3h-2.6V22z M215.4,28.2V28c0-2.4-1.3-3.9-2.8-3.9c-1.6,0-2.9,1.5-2.9,3.9v0.2c0,2.4,1.3,3.9,2.9,3.9
		C214.2,32.1,215.4,30.6,215.4,28.2z"/>
	<path fill="#211E1F" d="M46.8,6.7L46.8,6.7c0-2.1,1.7-3.9,3.9-3.9c2.2,0,3.9,1.7,3.9,3.9v0c0,2.1-1.7,3.9-3.9,3.9
		C48.5,10.6,46.8,8.8,46.8,6.7z M54,6.7L54,6.7c0-1.9-1.5-3.5-3.4-3.5c-1.9,0-3.4,1.6-3.4,3.5v0c0,1.9,1.5,3.4,3.4,3.4
		C52.5,10.2,54,8.6,54,6.7z M49.2,5c0-0.2,0.1-0.3,0.3-0.3h1.4c0.8,0,1.4,0.4,1.4,1.2c0,0.6-0.4,1-0.9,1.2l0.8,1
		c0.1,0.1,0.1,0.2,0.1,0.3c0,0.2-0.1,0.3-0.3,0.3c-0.1,0-0.2-0.1-0.3-0.2l-1.1-1.3h-0.9v1.2c0,0.2-0.1,0.3-0.3,0.3
		c-0.2,0-0.3-0.1-0.3-0.3V5z M50.8,6.6c0.6,0,0.9-0.3,0.9-0.7c0-0.5-0.3-0.7-0.9-0.7h-1v1.4H50.8z"/>
	<g>
		<g>
			<g>
				<g>
					<g>
						<g>
							
								<radialGradient id="SVGID_1_" cx="274.9774" cy="-256.6751" r="29.7199" fx="286.816" fy="-271.1238" gradientTransform="matrix(1 0 0 1 -255.9835 282.9821)" gradientUnits="userSpaceOnUse">
								<stop  offset="0.1141" style="stop-color:#626464"/>
								<stop  offset="0.1575" style="stop-color:#5C5D5D"/>
								<stop  offset="0.3438" style="stop-color:#434243"/>
								<stop  offset="1" style="stop-color:#010101"/>
							</radialGradient>
							<path fill="url(#SVGID_1_)" d="M48.5,24.1c0,13.1-10.7,23.8-23.9,23.8c-13.2,0-23.9-10.6-23.9-23.8
								c0-13.1,10.7-23.8,23.9-23.8C37.8,0.3,48.5,10.9,48.5,24.1z"/>
							<g>
								<defs>
									<path id="SVGID_00000019656941427799723450000004240098928321458575_" d="M48.5,24.1c0,13.1-10.7,23.8-23.9,23.8
										c-13.2,0-23.9-10.6-23.9-23.8c0-13.1,10.7-23.8,23.9-23.8C37.8,0.3,48.5,10.9,48.5,24.1z"/>
								</defs>
								<clipPath id="SVGID_00000151511886360504521450000002505316022805454490_">
									<use xlink:href="#SVGID_00000019656941427799723450000004240098928321458575_"  overflow="visible"/>
								</clipPath>
								
									<linearGradient id="SVGID_00000040544298476396715610000005207211572247630494_" gradientUnits="userSpaceOnUse" x1="288.8593" y1="-282.3451" x2="261.0691" y2="-244.0953" gradientTransform="matrix(1 0 0 1 -255.9835 282.9821)">
									<stop  offset="0.103" style="stop-color:#211E1F"/>
									<stop  offset="0.1638" style="stop-color:#2C292A"/>
									<stop  offset="0.2698" style="stop-color:#484646"/>
									<stop  offset="0.4084" style="stop-color:#767475"/>
									<stop  offset="0.5744" style="stop-color:#B6B5B5"/>
									<stop  offset="0.7451" style="stop-color:#FFFFFF"/>
									<stop  offset="1" style="stop-color:#A2A4A7"/>
								</linearGradient>
								
									<path clip-path="url(#SVGID_00000151511886360504521450000002505316022805454490_)" fill="url(#SVGID_00000040544298476396715610000005207211572247630494_)" d="
									M24.6,0.3c-0.2,0-0.3,0-0.5,0C12.1,1.6,1.9,10.6,1.9,24.1C1.8,36.9,10.2,44,17.5,46.8c0.4,0.1,0.8,0.2,1.2,0.3
									C10.1,43.5,6.8,32.4,7.1,26.3C7.7,12.2,18.4,4.4,31,4c2.7-0.1,5.3,0.2,7.8,1C34.8,2,29.9,0.3,24.6,0.3z"/>
								
									<linearGradient id="SVGID_00000142856999000337095650000001379623871433514683_" gradientUnits="userSpaceOnUse" x1="288.5264" y1="-276.7039" x2="279.3997" y2="-241.3397" gradientTransform="matrix(1 0 0 1 -255.9835 282.9821)">
									<stop  offset="0" style="stop-color:#211E1F"/>
									<stop  offset="8.398353e-02" style="stop-color:#262324"/>
									<stop  offset="0.1798" style="stop-color:#333131"/>
									<stop  offset="0.2816" style="stop-color:#4A4748"/>
									<stop  offset="0.3874" style="stop-color:#696768"/>
									<stop  offset="0.4964" style="stop-color:#929191"/>
									<stop  offset="0.608" style="stop-color:#C4C3C3"/>
									<stop  offset="0.7198" style="stop-color:#FEFEFE"/>
									<stop  offset="0.7222" style="stop-color:#FFFFFF"/>
									<stop  offset="1" style="stop-color:#8E9092"/>
								</linearGradient>
								
									<path clip-path="url(#SVGID_00000151511886360504521450000002505316022805454490_)" fill="url(#SVGID_00000142856999000337095650000001379623871433514683_)" d="
									M18.3,24.9c0.2-9.2,7.8-16.6,18-17C40.2,7.7,12.5,4.5,12.5,24c0,18.2,17.9,21.9,26.7,18.8C29.1,44.4,18,37.4,18.3,24.9z"/>
								
									<linearGradient id="SVGID_00000138545143738908457060000006728577961960311710_" gradientUnits="userSpaceOnUse" x1="296.7702" y1="-272.5988" x2="288.3423" y2="-250.0745" gradientTransform="matrix(1 0 0 1 -255.9835 282.9821)">
									<stop  offset="0.194" style="stop-color:#211E1F"/>
									<stop  offset="0.255" style="stop-color:#262324"/>
									<stop  offset="0.326" style="stop-color:#343132"/>
									<stop  offset="0.4021" style="stop-color:#4B4849"/>
									<stop  offset="0.4817" style="stop-color:#6B696A"/>
									<stop  offset="0.564" style="stop-color:#959394"/>
									<stop  offset="0.6474" style="stop-color:#C7C6C6"/>
									<stop  offset="0.7291" style="stop-color:#FFFFFF"/>
									<stop  offset="0.9409" style="stop-color:#97989C"/>
								</linearGradient>
								
									<path clip-path="url(#SVGID_00000151511886360504521450000002505316022805454490_)" fill="url(#SVGID_00000138545143738908457060000006728577961960311710_)" d="
									M47.6,17.5l-8,6.4l6.1,0c0,3.6-3.5,6.4-6.4,6.9c-5.2,0.8-11-3.3-10.7-8.9c0.5-8.6,8.6-11.4,15.4-9.3
									c-2.2-1.3-3.1-1.9-7.1-1.7c-8.6,0.4-13.6,7.5-12.4,14.4l0,0c0,0,0,0,0,0c0,0.2,0.1,0.3,0.1,0.5c0,0.1,0,0.2,0.1,0.4
									c0,0,0,0.1,0,0.1c0,0,0,0.1,0,0.1c1.2,5,5.8,8.5,11,9c0.1,0,0.2,0,0.3,0.1c0,0,0,0-0.1,0c1.3,0.1,2.7,0.2,3.9-0.3
									C44.5,33.2,49.8,26.9,47.6,17.5z"/>
							</g>
							<g>
								
									<linearGradient id="SVGID_00000150809118161011661510000003692375390399417790_" gradientUnits="userSpaceOnUse" x1="289.57" y1="-276.6907" x2="277.8831" y2="-240.6222" gradientTransform="matrix(1 0 0 1 -255.9835 282.9821)">
									<stop  offset="0" style="stop-color:#FFC809"/>
									<stop  offset="0.147" style="stop-color:#FEC40B"/>
									<stop  offset="0.3044" style="stop-color:#FAB712"/>
									<stop  offset="0.4662" style="stop-color:#F3A21E"/>
									<stop  offset="0.4695" style="stop-color:#F3A11E"/>
									<stop  offset="0.731" style="stop-color:#DD8B28"/>
									<stop  offset="1" style="stop-color:#9C5726"/>
								</linearGradient>
								<path fill="url(#SVGID_00000150809118161011661510000003692375390399417790_)" d="M16.9,25.6c0.3-9.5,7.8-17.1,17.6-17.3
									c3.8-0.1,7.3,1.2,10.2,3.1c0,0-4.2-5.2-14.2-5.5c-11-0.3-20.2,9.3-19.5,19.6c1.2,17,20.3,21.2,28.2,17.2
									C29.2,45.7,16.6,37.4,16.9,25.6z"/>
								
									<radialGradient id="SVGID_00000093889850656344133310000013462322184328963733_" cx="295.1497" cy="-267.0445" r="29.0297" fx="294.1873" fy="-266.1237" gradientTransform="matrix(1 0 0 1 -255.9835 282.9821)" gradientUnits="userSpaceOnUse">
									<stop  offset="0.2981" style="stop-color:#FFC809"/>
									<stop  offset="0.4106" style="stop-color:#FEC50A"/>
									<stop  offset="0.4831" style="stop-color:#F9BD0F"/>
									<stop  offset="0.5443" style="stop-color:#F0AE16"/>
									<stop  offset="0.5989" style="stop-color:#E59921"/>
									<stop  offset="0.6271" style="stop-color:#DD8B28"/>
									<stop  offset="0.6785" style="stop-color:#C97B27"/>
									<stop  offset="0.7566" style="stop-color:#B06727"/>
									<stop  offset="0.8283" style="stop-color:#A15B26"/>
									<stop  offset="0.8871" style="stop-color:#9C5726"/>
								</radialGradient>
								<path fill="url(#SVGID_00000093889850656344133310000013462322184328963733_)" d="M47,16.6l-8.7,7.8l7.5,0
									c0,3.8-4,6.8-7,7.2c-6,0.7-11.6-2.7-11.4-9.2c0.3-9.2,10.2-13.2,18.3-8.8c-1.8-1.9-6.1-3.6-10.3-3.1
									c-8.6,1-13.9,8.2-12.6,15.4c0,0,0.2,1.1,0.2,1.2c1.2,5.2,5.8,8.9,11.1,9.4c0.5,0.1,2.6,0.1,4.1-0.2
									C45.9,34.6,49.8,25.2,47,16.6z"/>
								
									<linearGradient id="SVGID_00000073712158320727303660000005437442007992430993_" gradientUnits="userSpaceOnUse" x1="284.1819" y1="-279.0229" x2="260.5934" y2="-243.5953" gradientTransform="matrix(1 0 0 1 -255.9835 282.9821)">
									<stop  offset="0" style="stop-color:#FFC809"/>
									<stop  offset="0.1193" style="stop-color:#FEC40B"/>
									<stop  offset="0.25" style="stop-color:#FAB612"/>
									<stop  offset="0.3834" style="stop-color:#F3A11E"/>
									<stop  offset="0.4341" style="stop-color:#EE9C20"/>
									<stop  offset="0.6389" style="stop-color:#DD8B28"/>
									<stop  offset="0.6532" style="stop-color:#D98828"/>
									<stop  offset="0.7987" style="stop-color:#B86D27"/>
									<stop  offset="0.9195" style="stop-color:#A35D26"/>
									<stop  offset="1" style="stop-color:#9C5726"/>
								</linearGradient>
								<path fill="url(#SVGID_00000073712158320727303660000005437442007992430993_)" d="M5.8,25.9C6.5,12.8,16.1,4.4,28.4,4
									c5.4-0.2,10.9,1.8,14.7,4.9c-2.6-3.8-7.5-6.8-12.6-8c-1.9-0.4-3.9-0.7-5.9-0.7C11.6,0.2,0.1,9.4,0,23.7
									C-0.1,37,11.6,46,19.1,47.2c0.1,0,0.1,0,0.1,0C10.5,43.9,5.2,35.4,5.8,25.9z"/>
							</g>
						</g>
					</g>
				</g>
			</g>
		</g>
	</g>
</g>
</svg>
